<svg id="Ebene_1" data-name="Ebene 1" xmlns="http://www.w3.org/2000/svg" xmlns:xlink="http://www.w3.org/1999/xlink" viewBox="0 0 146.7 146.7"><defs><style>.cls-1,.cls-6,.cls-7{fill:none;}.cls-2{clip-path:url(#clip-path);}.cls-3{clip-path:url(#clip-path-2);}.cls-4{opacity:1;}.cls-5{clip-path:url(#clip-path-3);}.cls-6,.cls-7{stroke:#fff;stroke-linejoin:round;}.cls-6{stroke-width:3.5px;}.cls-7{stroke-width:4px;}</style><clipPath id="clip-path" transform="translate(-1.65 -1.65)"><rect class="cls-1" x="-32.02" y="-32.02" width="214.05" height="214.05"/></clipPath><clipPath id="clip-path-2" transform="translate(-1.65 -1.65)"><circle class="cls-1" cx="75" cy="75" r="107.02"/></clipPath><clipPath id="clip-path-3" transform="translate(-1.65 -1.65)"><rect class="cls-1" x="-23.46" y="-17.75" width="196.92" height="168.38"/></clipPath></defs><g class="cls-2"><g class="cls-3"><g class="cls-4"><g class="cls-5"><path class="cls-6" d="M112,113.83V99.18c0-14.11-10.59-22.07-24.53-24.9L75,85.68,62.54,74.31C48.6,77.19,38,85.16,38,99.18v14.65M75,24.74a20.57,20.57,0,1,0,20.54,20.6v0A20.57,20.57,0,0,0,75,24.74ZM56.25,113.83V102.67m37.07,11.16V102.67" transform="translate(-1.65 -1.65)"/><path class="cls-7" d="M112,113.83V99.18c0-14.11-10.59-22.07-24.53-24.9L75,85.68,62.54,74.31C48.6,77.19,38,85.16,38,99.18v14.65M75,24.74a20.57,20.57,0,1,0,20.54,20.6v0A20.57,20.57,0,0,0,75,24.74ZM56.25,113.83V102.67m37.07,11.16V102.67" transform="translate(-1.65 -1.65)"/><circle class="cls-7" cx="73.35" cy="73.35" r="71.35"/></g></g></g></g></svg>