<?xml version="1.0" encoding="utf-8"?>
<!-- Generator: Adobe Illustrator 26.1.0, SVG Export Plug-In . SVG Version: 6.00 Build 0)  -->
<svg version="1.1" id="Ebene_1" xmlns="http://www.w3.org/2000/svg" xmlns:xlink="http://www.w3.org/1999/xlink" x="0px" y="0px"
	 viewBox="0 0 84 78.5" style="enable-background:new 0 0 84 78.5;" xml:space="preserve">
<style type="text/css">
	.st0{clip-path:url(#SVGID_00000026872938132836513050000011939990831911402654_);}
	.st1{clip-path:url(#SVGID_00000080170203696650279300000005958304774102464189_);}
	.st2{fill:none;stroke:#FFFFFF;stroke-width:4;stroke-miterlimit:10;}
	.st3{fill:none;stroke:#FFFFFF;stroke-width:4;stroke-linecap:round;stroke-linejoin:round;}
</style>
<g>
	<defs>
		<rect id="SVGID_1_" width="84" height="78.5"/>
	</defs>
	<clipPath id="SVGID_00000055708039183153820650000011135350886745773208_">
		<use xlink:href="#SVGID_1_"  style="overflow:visible;"/>
	</clipPath>
	<g style="clip-path:url(#SVGID_00000055708039183153820650000011135350886745773208_);">
		<g>
			<defs>
				<rect id="SVGID_00000042735015997009117590000010157609508261317036_" width="84" height="78.5"/>
			</defs>
			<clipPath id="SVGID_00000129203192901104758330000015789224742339069105_">
				<use xlink:href="#SVGID_00000042735015997009117590000010157609508261317036_"  style="overflow:visible;"/>
			</clipPath>
			<g style="clip-path:url(#SVGID_00000129203192901104758330000015789224742339069105_);">
				<g>
					<g>
						<g>
							<path class="st2" d="M35.8,67.7l-12,7.9c-4.3,2.8-9.8-1.1-8.4-5.9l6.1-20.6L4.1,36c-2.3-1.8-2.8-5.1-1-7.5
								c1-1.3,2.6-2.1,4.2-2.1l8.4-0.3 M35.5,9l1.3-3.5c1.1-2.9,4.3-4.3,7.2-3.2c1.4,0.6,2.6,1.7,3.2,3.2l7.5,20.1l22,0.7
								c2.9,0,5.3,2.4,5.3,5.4c0,1.7-0.8,3.2-2.1,4.2L65.5,46.8"/>
							<path class="st3" d="M45,48.6c3.2,3.8,6.8,7.2,10.7,10.2l5.9-4.3c2.7-1.9,6.4-1.4,8.4,1.1l5,6.4c1.9,2.5,1.5,6.1-1,8
								l-0.2,0.2l-5,3.7c-4.2,3.1-9.9,3.4-14.5,0.9c0,0-9.5-4.3-20.4-18.1S21.5,32.8,21.5,32.8c-1.3-5,0.6-10.2,4.7-13.2l5-3.7
								c2.7-2,6.4-1.5,8.4,1.1l5,6.4c1.9,2.5,1.5,6.1-1,8l-0.2,0.2l-5.8,4.3C39.6,40.4,42,44.7,45,48.6z"/>
						</g>
					</g>
				</g>
			</g>
		</g>
	</g>
</g>
</svg>
