<svg id="Ebene_1" data-name="Ebene 1" xmlns="http://www.w3.org/2000/svg" xmlns:xlink="http://www.w3.org/1999/xlink" viewBox="0 0 84 78.53"><defs><style>.cls-1,.cls-6,.cls-7{fill:none;}.cls-2{clip-path:url(#clip-path);}.cls-3{clip-path:url(#clip-path-2);}.cls-4{opacity:1;}.cls-5{clip-path:url(#clip-path-3);}.cls-6,.cls-7{stroke:#fff;stroke-width:4px;}.cls-6{stroke-miterlimit:10;}.cls-7{stroke-linecap:round;stroke-linejoin:round;}</style><clipPath id="clip-path" transform="translate(0 -2.73)"><rect class="cls-1" y="2.73" width="84" height="78.53"/></clipPath><clipPath id="clip-path-2" transform="translate(0 -2.73)"><rect class="cls-1" y="2.73" width="84" height="78.53"/></clipPath><clipPath id="clip-path-3" transform="translate(0 -2.73)"><rect class="cls-1" x="-17" y="-10.27" width="118" height="92.53"/></clipPath></defs><g class="cls-2"><g class="cls-3"><g class="cls-4"><g class="cls-5"><path class="cls-6" d="M35.79,70.43l-12,7.89c-4.27,2.81-9.81-1.1-8.38-5.92l6.08-20.56L4.13,38.69a5.34,5.34,0,0,1,3.2-9.59l8.41-.27m19.79-17.1,1.3-3.46a5.56,5.56,0,0,1,10.36,0l7.5,20.1,22,.73a5.34,5.34,0,0,1,3.2,9.59L65.54,49.56" transform="translate(0 -2.73)"/><path class="cls-7" d="M45,51.3A63.91,63.91,0,0,0,55.71,61.51l5.86-4.3A6.17,6.17,0,0,1,70,58.32l5,6.42a5.71,5.71,0,0,1-1,8l-.21.16-5,3.67a13.48,13.48,0,0,1-14.46.88s-9.55-4.31-20.37-18.08S21.53,35.57,21.53,35.57a12.45,12.45,0,0,1,4.74-13.25l5-3.66a6.15,6.15,0,0,1,8.44,1.11l5,6.41a5.71,5.71,0,0,1-1,8l-.2.15-5.85,4.31A60.25,60.25,0,0,0,45,51.3Z" transform="translate(0 -2.73)"/></g></g></g></g></svg>