<svg id="Ebene_1" data-name="Ebene 1" xmlns="http://www.w3.org/2000/svg" xmlns:xlink="http://www.w3.org/1999/xlink" viewBox="0 0 118.67 147.33">
  <defs>
    <style>.cls-1,.cls-3,.cls-4,.cls-5{fill:none;}.cls-2{clip-path:url(#clip-path);}.cls-3,.cls-4,.cls-5{stroke:#fff;stroke-width:4px;}.cls-3,.cls-4{stroke-linejoin:round;}.cls-4{stroke-linecap:round;}</style>
    <clipPath id="clip-path" transform="translate(-22.48 -1.72)">
      <circle class="cls-1" cx="74.65" cy="75.38" r="107.5" />
    </clipPath>
  </defs>
  <g class="cls-2">
    <path class="cls-3" d="M135.08,80.18,122.25,69.62a2.94,2.94,0,0,0-4-.21,464.18,464.18,0,0,0-32.89,46.26c-11.7,18.84-9.8,24.15-9.8,24.15-.91,1.8-2.44,5.46-.76,6.82s4.67-1,6.17-2.33c0,0,5.52.57,20.65-16.12A429.77,429.77,0,0,0,136.32,84,3.19,3.19,0,0,0,135.08,80.18Z" transform="translate(-22.48 -1.72)" />
    <path class="cls-4" d="M110.59,66.39a210.15,210.15,0,0,0-21.2,28.18" transform="translate(-22.48 -1.72)" />
    <path class="cls-5" d="M134.13,79.46,139,73A2.35,2.35,0,0,0,138,70l-7.31-5.89c-1.06-.86-2.38-1-3-.18L123,70.41m-37.57,45.4,16,12.53" transform="translate(-22.48 -1.72)" />
    <path class="cls-3" d="M109.53,24.26h6V60.15M65.67,129.34H24.48V24.26h6.14m24,82.22H79.78m-32.89,5.17h-10V101.24h10Zm7.75-30.9h34m-41.77,5h-10V75.4h10Zm7.89-31h47.7M47.11,60H36.91V49.6h10Zm22.8-47.41a4.24,4.24,0,0,0-4.31,4.16v.11a4.21,4.21,0,1,0,8.41.25v0A4.27,4.27,0,0,0,70,12.56Zm32.57,8.51a5.36,5.36,0,0,0-5.26-5.46H83.66a2.32,2.32,0,0,1-2.27-1.83A11.84,11.84,0,0,0,68,3.83l-.31,0a12,12,0,0,0-9.54,9.9,2.31,2.31,0,0,1-2.26,1.83H42.58a5.36,5.36,0,0,0-5.23,5.46V35.82h65.13Z" transform="translate(-22.48 -1.72)" />
  </g>
</svg>