<svg xmlns="http://www.w3.org/2000/svg" viewBox="0 0 43.34 51.61"><defs><style>.cls-1{fill:none;stroke:#00141d;stroke-linejoin:round;stroke-width:2px;}</style></defs><g id="Ebene_2" data-name="Ebene 2"><g id="Ebene_1-2" data-name="Ebene 1"><path class="cls-1" d="M23.06,35.27l6.51-6.51a2.89,2.89,0,0,1,2-.84,2.85,2.85,0,0,1,2,.84,2.88,2.88,0,0,1,0,4.07l-8.42,8.42.19,0c3.33-1,5.2.27,6,1.09,1.1,1.11,1.58,2.78,1.08,3.8-.36.73-1.2.76-2.47.8a21,21,0,0,0-8.22,1.77c-7.17,3.09-11.36,2.76-16.9-2.78s-4.53-12-1-15.53L15.76,18.56a2.7,2.7,0,0,1,3.82,3.82l-6,6,8.69-8.69a2.86,2.86,0,0,1,2-.85,3,3,0,0,1,2.06.87,2.89,2.89,0,0,1,0,4.07l-8,8,9.12-9.12a2.89,2.89,0,0,1,4.07,0,2.91,2.91,0,0,1,0,4.09Z"/><path class="cls-1" d="M10.76,23.53a2.72,2.72,0,0,1-1.06-.68,2.89,2.89,0,0,1,0-4.07l8.42-8.42-.18.05c-3.34.95-5.2-.27-6-1.09-1.11-1.11-1.58-2.77-1.08-3.79.36-.74,1.2-.77,2.47-.81A20.72,20.72,0,0,0,21.52,3C28.69-.14,32.88.19,38.41,5.73s4.53,12,1,15.53l-6.86,6.82"/></g></g></svg>