<?xml version="1.0" encoding="UTF-8"?>
<svg id="Ebene_1" xmlns="http://www.w3.org/2000/svg" viewBox="0 0 52.5 52.5">
  <defs>
    <style>.cls-1,.cls-2,.cls-3{fill:none;stroke:#C95F1E;stroke-width:4px;}.cls-2{stroke-linecap:round;}.cls-2,.cls-3{stroke-linejoin:round;}</style>
  </defs>
  <path class="cls-3" d="M43.37,11.23l-7.72-6.39c-.66-.66-1.69-.72-2.41-.12-7.17,8.86-13.8,18.2-19.83,27.91-7.05,11.33-5.91,14.53-5.91,14.53-.54,1.09-1.45,3.32-.48,4.1s2.83-.6,3.74-1.39c0,0,3.32,.36,12.48-9.7,7.53-8.44,14.53-17.3,20.92-26.64,.3-.84,0-1.81-.78-2.29Z" />
  <path class="cls-2" d="M28.6,2.91c-4.7,5.3-8.98,10.97-12.78,17" />
  <path class="cls-1" d="M42.82,10.75l2.95-3.92c.3-.66,.06-1.45-.6-1.81l-4.4-3.56c-.66-.54-1.45-.6-1.81-.12l-2.83,3.92M13.47,32.69l9.64,7.53" />
</svg>