<?xml version="1.0" encoding="utf-8"?>
<!-- Generator: Adobe Illustrator 26.2.1, SVG Export Plug-In . SVG Version: 6.00 Build 0)  -->
<svg version="1.1" id="Ebene_1" xmlns="http://www.w3.org/2000/svg" xmlns:xlink="http://www.w3.org/1999/xlink" x="0px" y="0px"
	 viewBox="0 0 84 84" style="enable-background:new 0 0 84 84;" xml:space="preserve">
<style type="text/css">
	.st0{fill:none;stroke:#FFFFFF;stroke-width:5	;stroke-linecap:round;stroke-linejoin:round;}
</style>
<g id="Ebene_2_00000143583906225993367960000017203070790072156035_">
	<g id="Ebene_1-2">
		<path class="st0" d="M47.2,7.3L54.7,28l22,0.8c3,0.1,5.4,2.7,5.3,5.7c-0.1,1.6-0.8,3.1-2.1,4.1L62.5,52.2l6.1,21.1
			c0.8,2.9-0.9,6-3.8,6.8c-1.6,0.4-3.2,0.2-4.6-0.7L42,67.1L23.8,79.4c-2.5,1.7-5.9,1.1-7.7-1.5c-0.9-1.4-1.2-3.1-0.7-4.6l6.1-21.1
			L4.1,38.6c-2.4-1.9-2.8-5.3-0.9-7.7c1-1.3,2.5-2,4.1-2.1l22-0.8l7.5-20.6c1-2.9,4.1-4.4,7-3.4C45.4,4.5,46.6,5.7,47.2,7.3z"/>
	</g>
</g>
</svg>
