<svg xmlns="http://www.w3.org/2000/svg" viewBox="0 0 65 65"><defs><style>.cls-1{fill:#fff;}.cls-2{fill:none;stroke:#382c10;stroke-linejoin:round;stroke-width:1.8px;}</style></defs><g id="Ebene_2" data-name="Ebene 2"><g id="Ebene_1-2" data-name="Ebene 1"><path class="cls-1" d="M32.5,65A32.5,32.5,0,1,0,0,32.5,32.5,32.5,0,0,0,32.5,65"/><path class="cls-2" d="M52,30.33,33.69,13.6a1.8,1.8,0,0,0-2.38,0L13,30.33A1.52,1.52,0,0,0,14.18,33h4.39V50.09a1.85,1.85,0,0,0,1.92,1.76h24a1.85,1.85,0,0,0,1.92-1.76V33h4.39A1.52,1.52,0,0,0,52,30.33ZM27.59,51.85V40.11a1.61,1.61,0,0,1,1.68-1.53h6.46a1.61,1.61,0,0,1,1.68,1.53V51.85"/></g></g></svg>