<svg xmlns="http://www.w3.org/2000/svg" viewBox="0 0 65 65"><defs><style>.cls-1{fill:#fff;}.cls-2{fill:none;stroke:#382c10;stroke-linejoin:round;stroke-width:1.8px;}</style></defs><g id="Ebene_2" data-name="Ebene 2"><g id="Ebene_1-2" data-name="Ebene 1"><path class="cls-1" d="M32.5,65A32.5,32.5,0,1,0,0,32.5,32.5,32.5,0,0,0,32.5,65"/><path class="cls-2" d="M53.15,33.8V31.2a2.28,2.28,0,0,0-2-2.27l-2.69-.3a2.31,2.31,0,0,1-1.88-1.47,8.51,8.51,0,0,0-.34-.83,2.27,2.27,0,0,1,.3-2.36l1.68-2.11A2.3,2.3,0,0,0,48,18.81L46.18,17a2.28,2.28,0,0,0-3-.17L41,18.49a2.27,2.27,0,0,1-2.36.3,8.51,8.51,0,0,0-.83-.34,2.31,2.31,0,0,1-1.47-1.88l-.3-2.69a2.28,2.28,0,0,0-2.27-2H31.2a2.28,2.28,0,0,0-2.27,2l-.3,2.69a2.31,2.31,0,0,1-1.47,1.88c-.28.1-.56.22-.83.34a2.27,2.27,0,0,1-2.36-.3l-2.11-1.68a2.3,2.3,0,0,0-3.05.17L17,18.81a2.3,2.3,0,0,0-.17,3.05L18.49,24a2.27,2.27,0,0,1,.3,2.36,8.51,8.51,0,0,0-.34.83,2.31,2.31,0,0,1-1.88,1.47l-2.69.3a2.28,2.28,0,0,0-2,2.27v2.6a2.28,2.28,0,0,0,2,2.27l2.69.3a2.31,2.31,0,0,1,1.88,1.47c.1.28.22.56.34.83a2.27,2.27,0,0,1-.3,2.36l-1.68,2.11a2.28,2.28,0,0,0,.17,3L18.81,48a2.3,2.3,0,0,0,3.05.17L24,46.5a2.29,2.29,0,0,1,2.36-.29c.27.12.55.24.83.34a2.31,2.31,0,0,1,1.47,1.88l.3,2.69a2.28,2.28,0,0,0,2.27,2h2.6a2.28,2.28,0,0,0,2.27-2l.3-2.69a2.31,2.31,0,0,1,1.47-1.88c.28-.1.56-.22.83-.34a2.27,2.27,0,0,1,2.36.3l2.11,1.68a2.28,2.28,0,0,0,3-.17L48,46.18a2.28,2.28,0,0,0,.17-3L46.51,41a2.27,2.27,0,0,1-.3-2.36c.12-.27.24-.55.34-.83a2.31,2.31,0,0,1,1.88-1.47l2.69-.3A2.28,2.28,0,0,0,53.15,33.8ZM32.5,42.12a9.62,9.62,0,1,0-9.62-9.62A9.62,9.62,0,0,0,32.5,42.12Z"/></g></g></svg>