<?xml version="1.0" encoding="utf-8"?>
<!-- Generator: Adobe Illustrator 26.2.1, SVG Export Plug-In . SVG Version: 6.00 Build 0)  -->
<svg version="1.1" id="Capa_1" xmlns="http://www.w3.org/2000/svg" xmlns:xlink="http://www.w3.org/1999/xlink" x="0px" y="0px" viewBox="0 0 512 512" style="enable-background:new 0 0 512 512;" xml:space="preserve">
	<g>
		<g>
			<path fill="#fff" d="M256,0C114.8,0,0,114.8,0,256s114.8,256,256,256s256-114.9,256-256S397.2,0,256,0z M256,472.3
			c-119.3,0-216.3-97-216.3-216.3S136.7,39.7,256,39.7s216.3,97,216.3,216.3S375.3,472.3,256,472.3z" />
		</g>
	</g>
	<g>
		<g id="options">
			<path fill="#fff" d="M216,146.3c0-22.1,17.9-40,40-40s40,17.9,40,40s-17.9,40-40,40S216,168.4,216,146.3z M256,213c-22.1,0-40,17.9-40,40
			s17.9,40,40,40s40-17.9,40-40S278.1,213,256,213z M256,319.7c-22.1,0-40,17.9-40,40c0,22.1,17.9,40,40,40s40-17.9,40-40
			C296,337.6,278.1,319.7,256,319.7z" />
		</g>
	</g>
</svg>