<svg xmlns="http://www.w3.org/2000/svg" viewBox="0 0 314 314"><defs><style>.cls-1{fill:#e65f00;}.cls-2,.cls-7{font-size:26.18px;fill:#fff;font-family:Roboto-Medium, Roboto;font-weight:500;}.cls-3{letter-spacing:0.01em;}.cls-4{letter-spacing:0.01em;}.cls-5,.cls-7{letter-spacing:0.01em;}.cls-6{letter-spacing:0.01em;}.cls-8{letter-spacing:0em;}.cls-10,.cls-9{fill:none;stroke:#fff;stroke-width:4px;}.cls-9{stroke-miterlimit:10;}.cls-10{stroke-linecap:round;stroke-linejoin:round;}</style></defs><g id="Ebene_2" data-name="Ebene 2"><g id="Ebene_1-2" data-name="Ebene 1"><path class="cls-1" d="M157,314A157,157,0,1,0,0,157,157,157,0,0,0,157,314"/><text class="cls-2" transform="translate(62.59 205.53)"><tspan class="cls-3">N</tspan><tspan class="cls-4" x="18.93" y="0">o</tspan><tspan class="cls-5" x="34.04" y="0">t</tspan><tspan class="cls-4" x="43.46" y="0">f</tspan><tspan class="cls-3" x="52.94" y="0">a</tspan><tspan class="cls-6" x="67.49" y="0">llkon</tspan><tspan class="cls-5" x="125.87" y="0">ta</tspan><tspan class="cls-6" x="149.84" y="0">k</tspan><tspan class="cls-5" x="163.83" y="0">t</tspan><tspan x="173.25" y="0">e </tspan></text><text class="cls-2" transform="translate(256.08 205.53)"> </text><text class="cls-7" transform="translate(109.89 238.85)">a<tspan class="cls-6" x="14.55" y="0">nrufe</tspan><tspan class="cls-8" x="77.76" y="0">n</tspan></text><path class="cls-9" d="M146.55,54.8l1.94-5.19c2.63-7.06,12.89-7.06,15.52,0l11.25,30.13,32.93,1.09c7.71.26,10.88,9.75,4.8,14.37l-21.47,16.28m-44.58,31.28-18,11.83c-6.4,4.21-14.7-1.66-12.56-8.87l9.11-30.81-26-19.71c-6.08-4.62-2.91-14.11,4.8-14.37l12.6-.41"/><path class="cls-10" d="M160.71,114.1c6.48,8.25,16.08,15.3,16.08,15.3l8.77-6.45a9.24,9.24,0,0,1,12.65,1.67l7.55,9.62A8.54,8.54,0,0,1,204,146.47l-7.47,5.5a20.15,20.15,0,0,1-21.66,1.32s-14.32-6.46-30.52-27.08-18.79-35.69-18.79-35.69a18.65,18.65,0,0,1,7.11-19.85l7.48-5.49a9.22,9.22,0,0,1,12.64,1.67l7.55,9.61a8.55,8.55,0,0,1-1.72,12.24l-8.77,6.45A90.81,90.81,0,0,0,160.71,114.1Z"/></g></g></svg>