<svg xmlns="http://www.w3.org/2000/svg" viewBox="0 0 314 314"><defs><style>.cls-1{fill:#faf6ea;}.cls-2{font-size:26.18px;fill:#d9b221;font-family:Roboto-Medium, Roboto;font-weight:500;}.cls-3{letter-spacing:0em;}.cls-4{letter-spacing:0.01em;}.cls-5{letter-spacing:0.01em;}.cls-6{letter-spacing:0.01em;}.cls-7{letter-spacing:-0.02em;}.cls-8{letter-spacing:0.01em;}.cls-9{fill:none;stroke:#d9b221;stroke-linejoin:round;stroke-width:4px;}</style></defs><g id="Ebene_2" data-name="Ebene 2"><g id="Ebene_1-2" data-name="Ebene 1"><path class="cls-1" d="M157,314A157,157,0,1,0,0,157,157,157,0,0,0,157,314"/><text class="cls-2" transform="translate(137.31 211.91)"><tspan class="cls-3">W</tspan><tspan x="23.08" y="0">o </tspan></text><text class="cls-2" transform="translate(101.91 245.24)"><tspan class="cls-4">s</tspan><tspan class="cls-5" x="13.9" y="0">t</tspan><tspan class="cls-6" x="23.32" y="0">ehe</tspan><tspan class="cls-7" x="66.72" y="0"> </tspan><tspan class="cls-4" x="72.59" y="0">i</tspan><tspan class="cls-8" x="79.67" y="0">c</tspan><tspan x="93.72" y="0">h</tspan></text><path class="cls-9" d="M144.48,98l-27,12.55a5.37,5.37,0,0,0-2.4,7.08,5.56,5.56,0,0,0,7,3.06l23-8.93v19.05l-12.05,34c-.68,2.93.71,5.67,4,6.95a6,6,0,0,0,7.78-2.5l13-29.47,13,29.47a6,6,0,0,0,7.78,2.5c3.25-1.28,4.65-4,4-6.95l-12-34v-19l22.88,8.82a5.56,5.56,0,0,0,7-3.06,5.36,5.36,0,0,0-2.4-7.08L171.15,98m-13.33,10.35s18.8-27,18.8-41.18a18.81,18.81,0,0,0-37.61,0C139,81.29,157.82,108.32,157.82,108.32Zm0,0s18.8-27,18.8-41.18a18.81,18.81,0,0,0-37.61,0C139,81.29,157.82,108.32,157.82,108.32Zm0-30.51A10.67,10.67,0,1,0,147.1,67.14,10.69,10.69,0,0,0,157.82,77.81Z"/></g></g></svg>