<svg xmlns="http://www.w3.org/2000/svg" viewBox="0 0 314 314"><defs><style>.cls-1{fill:#fff;}.cls-2,.cls-5{font-size:26.18px;fill:#e65f00;font-family:Roboto-Medium, Roboto;font-weight:500;}.cls-2,.cls-6{letter-spacing:0.01em;}.cls-3{letter-spacing:0.01em;}.cls-4{letter-spacing:0em;}.cls-7{letter-spacing:0.01em;}.cls-8{letter-spacing:0.01em;}.cls-10,.cls-11,.cls-9{fill:none;stroke:#e65f00;stroke-width:4px;}.cls-10,.cls-9{stroke-linejoin:round;}.cls-10{stroke-linecap:round;}</style></defs><g id="Ebene_2" data-name="Ebene 2"><g id="Ebene_1-2" data-name="Ebene 1"><path class="cls-1" d="M157,314A157,157,0,1,0,0,157,157,157,0,0,0,157,314"/><text class="cls-2" transform="translate(128.08 211.91)">M<tspan class="cls-3" x="23.25" y="0">ei</tspan><tspan class="cls-4" x="44.47" y="0">n </tspan></text><text class="cls-5" transform="translate(63.75 245.24)"><tspan class="cls-6">S</tspan><tspan class="cls-3" x="16.78" y="0">i</tspan><tspan class="cls-6" x="23.85" y="0">c</tspan><tspan class="cls-3" x="37.91" y="0">herhei</tspan><tspan class="cls-7" x="112.86" y="0">t</tspan><tspan class="cls-8" x="122.28" y="0">spl</tspan><tspan class="cls-6" x="158.37" y="0">a</tspan><tspan x="172.93" y="0">n</tspan></text><path class="cls-9" d="M199.84,114.29l-10.32-8.64a2.3,2.3,0,0,0-3.17-.19,384.51,384.51,0,0,0-26.58,37.93c-9.42,15.43-7.88,19.79-7.88,19.79-.73,1.45-2,4.45-.63,5.58s3.77-.83,5-1.92c0,0,4.42.48,16.62-13.19a351.8,351.8,0,0,0,27.88-36.22A2.63,2.63,0,0,0,199.84,114.29Z"/><path class="cls-10" d="M180.15,103.07a171.67,171.67,0,0,0-17.06,23.07"/><path class="cls-11" d="M159.9,143.48l12.93,10.29m26.26-40.06,3.86-5.32a1.93,1.93,0,0,0-.71-2.42l-5.75-4.82c-.84-.72-1.9-.79-2.37-.16l-3.84,5.32"/><path class="cls-9" d="M173.61,65.85a4.34,4.34,0,0,0-4.21-4.48H158.58a1.85,1.85,0,0,1-1.82-1.47,9.57,9.57,0,0,0-11-8.14,9.79,9.79,0,0,0-7.67,8.14,1.86,1.86,0,0,1-1.84,1.47H125.4a4.36,4.36,0,0,0-4.2,4.48V77.94h52.41Zm-26.2-6.92a3.6,3.6,0,1,0,3.31,3.69v-.09A3.51,3.51,0,0,0,147.41,58.93ZM128.94,97.75h-8.09V89.24h8Zm6.17-4.27h38.5m-44.73,25.41h-8v-8.51h8Zm6.23-4.21h27.4m-33.63,25.41h-8v-8.55h8Zm6.23-4.25h20.24M144,154.58H110.84V68.48h5m63.5,0h4.84V97.75"/></g></g></svg>