<svg id="Layer_2" enable-background="new 0 0 32 32" height="512" viewBox="0 0 32 32" width="512" fill="#c9601e" xmlns="http://www.w3.org/2000/svg">
  <g>
    <path d="m29.5484 22.86127h-1.16132v-1.16125c0-.2323-.05804-.45483-.16449-.64844v-.00964c-.23224-.46454-.72583-.79352-1.28711-.79352-.56134 0-1.05481.32898-1.28711.79352v.00964c-.10645.1936-.16449.41614-.16449.64844v1.16125h-1.15167c-.80316 0-1.4516.64844-1.4516 1.4516 0 .80328.64844 1.45166 1.4516 1.45166h1.15167v1.16125c0 .80328.64832 1.45166 1.4516 1.45166.80322 0 1.4516-.64838 1.4516-1.45166v-1.16125h1.16132c.80322 0 1.4516-.64838 1.4516-1.45166 0-.80317-.64838-1.4516-1.4516-1.4516z" />
    <path d="m21.82581 25.76453c-.25159-.42584-.39679-.91931-.39679-1.45166 0-.52252.1452-1.02576.39679-1.4516.45483-.78387 1.26776-1.34509 2.22583-1.43225.08704-.95807.64838-1.78064 1.43225-2.23547.42578-.25159.91931-.39673 1.4516-.39673.53223 0 1.02582.14514 1.4516.39673v-8.8645c0-1.77094-1.43225-3.20325-3.19354-3.20325h-4.17096c-.10645 0-.22253-.06769-.26129-.15485l-.78387-1.5871c-.55164-1.08386-1.65479-1.76129-2.8645-1.76129h-4.83868c-1.19037 0-2.31293.68713-2.85486 1.771l-.78389 1.55804c-.0484.10651-.15485.17419-.271.17419h-4.16125c-1.771 0-3.20325 1.43232-3.20325 3.20325v12.24194c0 1.76129 1.43225 3.19354 3.20325 3.19354h17.62256zm-7.13227-14.60968c2.68463 0 4.8548 2.18628 4.8548 4.85486 0 2.66852-2.17017 4.85474-4.8548 4.85474-2.66852 0-4.8548-2.18622-4.8548-4.85474.00001-2.66858 2.18628-4.85486 4.8548-4.85486z" />
  </g>
</svg>