<?xml version="1.0" encoding="UTF-8"?><svg id="Ebene_1" xmlns="http://www.w3.org/2000/svg" viewBox="0 0 841.89 595.28"><defs><style>.cls-1{fill:none;stroke:#808081;stroke-dasharray:0 0 12 12;stroke-linecap:round;stroke-miterlimit:10;stroke-width:4px;}.cls-2{fill:#fab30d;}.cls-3{fill:#fff;}.cls-4{fill:#1d1d1b;}.cls-5{fill:#808081;}</style></defs><rect class="cls-3" width="841.89" height="595.28"/><g><circle class="cls-2" cx="685.98" cy="439.37" r="99.21"/><circle class="cls-4" cx="255.12" cy="198.43" r="70.87"/></g><g><line class="cls-1" x1="582.59" y1="380.76" x2="332.71" y2="239.13"/><path class="cls-5" d="M568.27,350.58c-.97,.52-1.34,1.73-.82,2.71l14.35,27.03-30.56,1.57c-1.1,.06-1.96,1-1.9,2.1,.06,1.1,1.01,1.95,2.1,1.9l33.69-1.74c.68-.04,1.3-.42,1.64-1.01s.35-1.32,.03-1.92l-15.82-29.8c-.19-.35-.46-.62-.78-.8-.57-.33-1.3-.36-1.93-.03Z"/><path class="cls-5" d="M365.96,235.91c.06,1.1-.79,2.04-1.9,2.1l-30.56,1.57,14.35,27.03c.52,.98,.15,2.19-.82,2.71-.98,.52-2.19,.14-2.71-.83l-15.82-29.8c-.32-.6-.31-1.33,.03-1.92,.34-.59,.96-.98,1.64-1.01l33.69-1.74c.4-.02,.77,.08,1.09,.26,.57,.33,.98,.93,1.01,1.64Z"/></g></svg>