<?xml version="1.0" encoding="UTF-8"?><svg id="Ebene_1" xmlns="http://www.w3.org/2000/svg" viewBox="0 0 841.89 595.28"><defs><style>.cls-1{fill:none;stroke:#808081;stroke-dasharray:0 0 12 12;stroke-linecap:round;stroke-miterlimit:10;stroke-width:4px;}.cls-2{fill:#fab30d;}.cls-3{fill:#fff;}.cls-4{fill:#1d1d1b;}.cls-5{fill:#808081;}</style></defs><rect class="cls-3" width="841.89" height="595.28"/><g><circle class="cls-2" cx="685.98" cy="439.37" r="119.29"/><circle class="cls-4" cx="272.25" cy="116.81" r="99.21"/></g><g><line class="cls-1" x1="680.61" y1="436.41" x2="276.04" y2="119.77"/><path class="cls-5" d="M670.91,404.44c-1.04,.37-1.59,1.51-1.22,2.56l10.19,28.85-30.45-2.96c-1.1-.11-2.08,.7-2.19,1.79s.71,2.08,1.8,2.19l33.58,3.27c.68,.06,1.35-.22,1.77-.76s.54-1.26,.31-1.9l-11.24-31.81c-.13-.37-.36-.68-.65-.91-.52-.41-1.23-.55-1.9-.31Z"/><path class="cls-5" d="M309.4,121.5c-.11,1.1-1.09,1.9-2.19,1.79l-30.45-2.96,10.19,28.85c.37,1.04-.18,2.19-1.22,2.56-1.04,.37-2.19-.19-2.56-1.22l-11.24-31.81c-.23-.64-.11-1.36,.31-1.9,.42-.54,1.09-.82,1.77-.76l33.58,3.27c.39,.04,.75,.19,1.04,.42,.52,.41,.83,1.06,.76,1.77Z"/></g></svg>