<svg id="Ebene_1" data-name="Ebene 1" xmlns="http://www.w3.org/2000/svg" xmlns:xlink="http://www.w3.org/1999/xlink" viewBox="0 0 270.89 82.8"><defs><style>.cls-1{fill:none;}.cls-2{clip-path:url(#clip-path);}.cls-3{fill:#fff;}</style><clipPath id="clip-path" transform="translate(-0.28 -1.07)"><rect class="cls-1" x="-0.47" y="0.32" width="272.39" height="84.3"/></clipPath></defs><g class="cls-2"><path class="cls-3" d="M7.32,18c.34-5.32,5.35-10.65,12.13-10.65h.22a12.17,12.17,0,0,1,9.74,4.69h7.37A19.19,19.19,0,0,0,19.45,1.13h-.07A19,19,0,0,0,.28,19.81c0,1.18.13,3,.2,3.5H31.57a12.66,12.66,0,0,1-12.33,9.91A12.17,12.17,0,0,1,10,29.15H2.42a19.19,19.19,0,0,0,36.2-8.88A21,21,0,0,0,38.48,18Z" transform="translate(-0.28 -1.07)"/><path class="cls-3" d="M62.38,51.77c-7.5,0-12.5,6.38-12.5,12.89s5.07,13,12.5,13c7.18,0,12.5-6.12,12.5-13,0-6.44-5-12.82-12.5-12.82m0,32.07c-11.92,0-19.17-10.19-19.17-19.4a19.17,19.17,0,0,1,38.34.13c0,8.87-7.11,19.26-19.17,19.27" transform="translate(-0.28 -1.07)"/><path class="cls-3" d="M8.87,52.12h16.5a4.86,4.86,0,0,1,.55,9.7H8.87Zm0,31.45V67.17H15c8.93,0,16.21,7.53,16.53,16.4h6a22.49,22.49,0,0,0-7.65-16.3,11.19,11.19,0,0,0-4.5-21.44H2.82V83.57Z" transform="translate(-0.28 -1.07)"/><path class="cls-3" d="M119,5.85a5.88,5.88,0,0,0-2.5-.62c-.86,0-2,.35-2,1.38,0,1.94,4.11,1.82,4.11,5.18,0,3-2.32,4-5,4a9.89,9.89,0,0,1-3.44-.68l.59-2.07a7.15,7.15,0,0,0,3,.84c1.16,0,2.3-.58,2.3-1.88,0-2.18-4.12-1.84-4.12-5,0-2.55,2.18-3.65,4.5-3.65a8.55,8.55,0,0,1,3.13.53Z" transform="translate(-0.28 -1.07)"/><path class="cls-3" d="M128.37,14.33c-.11.54-.2,1-.23,1.28h-2.26l.15-.87h0a3.76,3.76,0,0,1-2.53,1.08A2.7,2.7,0,0,1,120.56,13a9,9,0,0,1,.3-1.93l.92-4.33h2.32l-.87,4.2a9.9,9.9,0,0,0-.26,1.87A1.2,1.2,0,0,0,124.12,14h.11c1.61,0,2.2-1.5,2.5-2.84l1-4.5H130Z" transform="translate(-0.28 -1.07)"/></g><path class="cls-3" d="M133.31,2.86h2.32l-.5,2.21h-2.3Zm-.84,3.84h2.31l-1.9,8.91h-2.32Z" transform="translate(-0.28 -1.07)"/><polygon class="cls-3" points="143.25 7.43 137.79 12.74 142.25 12.74 141.93 14.54 134.47 14.54 134.84 12.74 140.32 7.43 136.22 7.43 136.62 5.63 143.63 5.63 143.25 7.43"/><path class="cls-3" d="M146.78,2.86h2.32l-.5,2.21h-2.32Zm-.86,3.84h2.32l-1.9,8.91H144Z" transform="translate(-0.28 -1.07)"/><g class="cls-2"><path class="cls-3" d="M151.6,11.91c0,.9.28,2.11,1.42,2.11,1.69,0,2.7-2,2.7-3.62,0-1-.5-2.11-1.68-2.11-1.66,0-2.44,2.28-2.44,3.62m8.25-9.28-2.4,11c-.14.76-.28,1.5-.33,2H155l.23-1.31h0a3.26,3.26,0,0,1-2.9,1.52c-2.11,0-3.06-1.76-3.06-3.7,0-2.66,1.45-5.62,4.5-5.62a3.48,3.48,0,0,1,2.75,1.26l1.12-5.12Z" transform="translate(-0.28 -1.07)"/><path class="cls-3" d="M165,8.29c-1.58,0-2.46,2.08-2.46,3.63,0,1.15.4,2.1,1.53,2.1,1.93,0,2.56-2.43,2.56-3.83,0-1.09-.56-1.9-1.63-1.9M161,7.86a9,9,0,0,0,.19-1.16h2.2l-.26,1.18h0a3,3,0,0,1,2.68-1.39c2.21,0,3.27,1.5,3.27,3.62,0,2.78-1.54,5.71-4.64,5.71A2.32,2.32,0,0,1,162,14.23h0l-1,5h-2.32Z" transform="translate(-0.28 -1.07)"/><path class="cls-3" d="M171.56,7.89c.07-.38.14-.77.21-1.19H174l-.31,1.68h0a3.2,3.2,0,0,1,2.63-1.89,4.38,4.38,0,0,1,.88.09l-.5,2.27a2.94,2.94,0,0,0-.88-.14c-1.65,0-2.44,1.47-2.74,2.9l-.83,4H170Z" transform="translate(-0.28 -1.07)"/><path class="cls-3" d="M184.87,5.07h-2l.43-2h2Zm-3.59,0h-2l.43-2h2Zm-1.19,9c1.73,0,2.27-1.19,2.63-2.63h-.81c-1.13,0-3,.19-3,1.7,0,.62.59.93,1.17.93m2.28.12h0a3.42,3.42,0,0,1-2.87,1.58,2.47,2.47,0,0,1-2.75-2.55c0-2.94,3.29-3.16,5.47-3.16H183a2.8,2.8,0,0,0,.07-.76c0-.9-1-1.16-1.78-1.16a6.92,6.92,0,0,0-2.93.69L178.67,7a9.08,9.08,0,0,1,3-.54c1.78,0,3.46.66,3.46,2.75,0,1.2-.88,4.69-1.09,6.37h-1.95Z" transform="translate(-0.28 -1.07)"/></g><polygon class="cls-3" points="186.81 5.64 189.19 5.64 190.09 12.17 190.12 12.17 193.63 5.64 196.09 5.64 190.88 14.54 188.32 14.54 186.81 5.64"/><g class="cls-2"><path class="cls-3" d="M202.58,10.28a4,4,0,0,0,0-.6,1.33,1.33,0,0,0-1.14-1.5h-.33c-1.44,0-2.06.86-2.5,2.09Zm-4.24,1.59c0,1.65.88,2.25,2.47,2.25a6.51,6.51,0,0,0,2.74-.64l-.27,1.84a10.21,10.21,0,0,1-2.84.5c-2.56,0-4.29-1.25-4.29-3.9a5.33,5.33,0,0,1,5.07-5.43c2.19,0,3.65,1.13,3.65,3.39a9.51,9.51,0,0,1-.23,2Z" transform="translate(-0.28 -1.07)"/><path class="cls-3" d="M207.2,8c.1-.54.19-1,.22-1.28h2.27l-.16.87h0a3.79,3.79,0,0,1,2.52-1.07A2.69,2.69,0,0,1,215,9.35a9,9,0,0,1-.3,1.94l-.92,4.32h-2.32l.87-4.21a9.69,9.69,0,0,0,.26-1.86,1.2,1.2,0,0,0-1.14-1.25h-.13c-1.61,0-2.19,1.5-2.5,2.84l-.95,4.5h-2.32Z" transform="translate(-0.28 -1.07)"/><path class="cls-3" d="M217,6.7h1.68l.4-1.83,2.5-.82L221,6.7h2.08l-.36,1.7h-2.08l-.85,3.89a4.12,4.12,0,0,0-.1.86.83.83,0,0,0,.77.87h.11a3.1,3.1,0,0,0,1.13-.21l-.4,1.8a6.4,6.4,0,0,1-1.25.21c-1.57,0-2.68-.62-2.68-2.34a10.34,10.34,0,0,1,.3-2.07l.65-3h-1.68Z" transform="translate(-0.28 -1.07)"/></g><path class="cls-3" d="M225.63,2.86h2.31l-.5,2.21h-2.31Zm-.85,3.84h2.32l-1.91,8.91h-2.31Z" transform="translate(-0.28 -1.07)"/><g class="cls-2"><path class="cls-3" d="M234.94,10.4c0-1.15-.4-2.12-1.77-2.12-1.83,0-2.75,2-2.75,3.63,0,1.18.5,2.09,1.82,2.09,1.8,0,2.7-2.07,2.7-3.6m2.43,0a5.16,5.16,0,0,1-5.32,5.42,3.75,3.75,0,0,1-4-4.07,5.18,5.18,0,0,1,5.09-5.26h.18a3.75,3.75,0,0,1,4.08,3.91" transform="translate(-0.28 -1.07)"/><path class="cls-3" d="M239.87,8c.11-.54.19-1,.23-1.28h2.26l-.15.87h0a3.85,3.85,0,0,1,2.54-1.08,2.69,2.69,0,0,1,2.9,2.86,8.42,8.42,0,0,1-.29,1.93l-.93,4.33h-2.33L245,11.4a9,9,0,0,0,.26-1.86,1.2,1.2,0,0,0-1.14-1.25H244c-1.61,0-2.2,1.5-2.5,2.84l-1,4.5h-2.31Z" transform="translate(-0.28 -1.07)"/></g><polygon class="cls-3" points="112.81 23.23 119.92 23.23 119.56 25.13 114.84 25.13 114.22 28.11 118.44 28.11 118.06 30.01 113.82 30.01 113.11 33.4 117.89 33.4 117.47 35.3 110.27 35.3 112.81 23.23"/><path class="cls-3" d="M122.74,23.62h2.32l-.5,2.21h-2.28Zm-.84,3.84h2.31l-1.9,8.91H120Z" transform="translate(-0.28 -1.07)"/><g class="cls-2"><path class="cls-3" d="M126.45,28.74c.1-.54.19-1,.22-1.28h2.27l-.16.86h0a3.8,3.8,0,0,1,2.53-1.07,2.69,2.69,0,0,1,2.9,2.85A9.67,9.67,0,0,1,134,32L133,36.37H130.7l.86-4.21a9.06,9.06,0,0,0,.26-1.87,1.19,1.19,0,0,0-1.16-1.22h-.1c-1.6,0-2.19,1.5-2.5,2.84l-1,4.5h-2.32Z" transform="translate(-0.28 -1.07)"/><path class="cls-3" d="M138.14,23.39h2.32l-1.11,4.93h0a3.82,3.82,0,0,1,2.5-1.07,2.69,2.69,0,0,1,2.9,2.86A8.42,8.42,0,0,1,144.5,32l-.93,4.33h-2.29l.86-4.21a9,9,0,0,0,.26-1.86,1.2,1.2,0,0,0-1.14-1.25h-.12c-1.61,0-2.2,1.5-2.5,2.84l-.95,4.5h-2.32Z" transform="translate(-0.28 -1.07)"/><path class="cls-3" d="M152.58,31a3.08,3.08,0,0,0,.06-.61,1.33,1.33,0,0,0-1.14-1.49,1.22,1.22,0,0,0-.33,0c-1.44,0-2.06.87-2.5,2.09Zm-4.23,1.59c0,1.64.88,2.25,2.47,2.25a6.43,6.43,0,0,0,2.73-.64l-.27,1.83a10.15,10.15,0,0,1-2.84.5c-2.56,0-4.29-1.25-4.29-3.89a5.33,5.33,0,0,1,5.07-5.44c2.2,0,3.65,1.13,3.65,3.4a9.66,9.66,0,0,1-.23,2Z" transform="translate(-0.28 -1.07)"/></g><path class="cls-3" d="M158.31,23.62h2.32l-.5,2.21h-2.3Zm-.85,3.84h2.32l-1.9,8.91h-2.32Z" transform="translate(-0.28 -1.07)"/><g class="cls-2"><path class="cls-3" d="M161.28,27.46H163l.4-1.84,2.5-.81-.58,2.65h2.07L167,29.15h-2.08l-.84,3.92a3.55,3.55,0,0,0-.1.86.82.82,0,0,0,.77.87h.11a3.09,3.09,0,0,0,1.12-.21l-.39,1.8a6.66,6.66,0,0,1-1.25.21c-1.57,0-2.68-.63-2.68-2.34a9.83,9.83,0,0,1,.29-2.08l.66-3h-1.68Z" transform="translate(-0.28 -1.07)"/></g><polygon class="cls-3" points="169.57 22.33 171.89 22.33 169.14 35.3 166.82 35.3 169.57 22.33"/><path class="cls-3" d="M174.66,23.62H177l-.5,2.21h-2.31Zm-.85,3.84h2.32l-1.91,8.91h-2.31Z" transform="translate(-0.28 -1.07)"/><g class="cls-2"><path class="cls-3" d="M184.07,29.5a3.16,3.16,0,0,0-1.7-.45c-1.85,0-2.89,1.73-2.89,3.41,0,1.16.38,2.32,2,2.32a4.72,4.72,0,0,0,1.88-.45l-.26,1.83a4.87,4.87,0,0,1-2.23.41,3.59,3.59,0,0,1-3.79-3.84,5.16,5.16,0,0,1,5.26-5.5,8.25,8.25,0,0,1,2.32.35Z" transform="translate(-0.28 -1.07)"/><path class="cls-3" d="M187.17,23.39h2.31l-1.11,4.93h0a3.8,3.8,0,0,1,2.53-1.07,2.69,2.69,0,0,1,2.9,2.86,9.68,9.68,0,0,1-.29,1.93l-.94,4.33h-2.33l.86-4.21a9,9,0,0,0,.26-1.86,1.2,1.2,0,0,0-1.14-1.25h-.12c-1.61,0-2.2,1.5-2.5,2.84l-1,4.5h-2.31Z" transform="translate(-0.28 -1.07)"/><path class="cls-3" d="M203.68,29.45h.89c1.3,0,2.87-.4,2.87-2,0-1.26-1.09-1.26-2.08-1.26h-1Zm-1.38-5.16h2.85c2.24,0,4.81,0,4.81,2.86,0,2.07-1.55,3.18-3.53,3.21v0a1.28,1.28,0,0,1,1.23,1.11l1.16,4.86h-2.54l-.59-2.84c-.28-1.28-.21-2.18-1.52-2.18h-.89l-1.06,5h-2.44Z" transform="translate(-0.28 -1.07)"/><path class="cls-3" d="M217,31a4.07,4.07,0,0,0,0-.61,1.32,1.32,0,0,0-1.13-1.49,1.29,1.29,0,0,0-.34,0c-1.44,0-2.06.87-2.5,2.09Zm-4.24,1.59c0,1.64.88,2.25,2.47,2.25a6.51,6.51,0,0,0,2.74-.64l-.3,1.83a10.08,10.08,0,0,1-2.84.5c-2.56,0-4.29-1.25-4.29-3.89a5.33,5.33,0,0,1,5.07-5.44c2.2,0,3.65,1.13,3.65,3.4a9.65,9.65,0,0,1-.22,2Z" transform="translate(-0.28 -1.07)"/><path class="cls-3" d="M225.15,29.07c-1.68,0-2.4,2.2-2.4,3.53,0,1.07.43,2,1.47,2,1.85,0,2.61-2,2.61-3.65a1.69,1.69,0,0,0-1.68-1.87m-4.87,8.64a7.17,7.17,0,0,0,2.8.69c2.46,0,2.82-1.71,3.37-3.74h0a3.33,3.33,0,0,1-3,1.7c-2.17,0-3.1-1.82-3.1-3.77,0-2.67,1.63-5.35,4.5-5.35a3.09,3.09,0,0,1,2.71,1.5l.26-1.3H230c-.07.24-.17.67-.29,1.24l-1.42,6.7c-.57,2.9-1.83,4.81-5.09,4.81a10.06,10.06,0,0,1-3.56-.61Z" transform="translate(-0.28 -1.07)"/></g><path class="cls-3" d="M233.28,23.62h2.31l-.5,2.21h-2.31Zm-.85,3.84h2.35l-1.93,8.91h-2.32Z" transform="translate(-0.28 -1.07)"/><g class="cls-2"><path class="cls-3" d="M242.62,31.16c0-1.16-.4-2.13-1.76-2.13-1.84,0-2.75,2-2.75,3.63,0,1.18.5,2.09,1.81,2.09,1.8,0,2.7-2.07,2.7-3.59m2.42,0a5.15,5.15,0,0,1-5.31,5.42,3.75,3.75,0,0,1-4-4.07,5.17,5.17,0,0,1,5.09-5.26H241A3.74,3.74,0,0,1,245,31.16" transform="translate(-0.28 -1.07)"/><path class="cls-3" d="M247.55,28.74c.11-.54.19-1,.23-1.28H250l-.15.86h0a3.82,3.82,0,0,1,2.53-1.07,2.69,2.69,0,0,1,2.9,2.85,9,9,0,0,1-.29,1.94l-.93,4.33h-2.32l.86-4.21a9.06,9.06,0,0,0,.26-1.87,1.19,1.19,0,0,0-1.16-1.22h-.1c-1.61,0-2.2,1.5-2.5,2.84l-.95,4.5H245.9Z" transform="translate(-0.28 -1.07)"/><path class="cls-3" d="M259.87,34.88c1.73,0,2.27-1.19,2.63-2.63h-.81c-1.13,0-3,.19-3,1.7,0,.62.59.93,1.17.93m2.28.12h0a3.41,3.41,0,0,1-2.87,1.57A2.46,2.46,0,0,1,256.48,34c0-2.94,3.29-3.16,5.47-3.16h.83a2.83,2.83,0,0,0,.07-.77c0-.89-1-1.15-1.78-1.15a6.92,6.92,0,0,0-2.93.69l.33-1.85a9.08,9.08,0,0,1,3-.54c1.79,0,3.46.66,3.46,2.75,0,1.19-.88,4.69-1.09,6.37h-1.95Z" transform="translate(-0.28 -1.07)"/></g><polygon class="cls-3" points="268.57 22.33 270.89 22.33 268.13 35.3 265.82 35.3 268.57 22.33"/><g class="cls-2"><path class="cls-3" d="M113.76,52.46c0,1.57.79,3,2.54,3,2.77,0,4.31-3.32,4.31-5.72,0-1.61-.83-3-2.58-3-2.82,0-4.27,3.27-4.27,5.71m9.35-2.5a8,8,0,0,1-2,5.35,6.66,6.66,0,0,1-5.12,2c-3,0-4.76-2.14-4.76-5a8.1,8.1,0,0,1,1.9-5.22,6.35,6.35,0,0,1,5-2.25c3.27,0,5,1.9,5,5.12" transform="translate(-0.28 -1.07)"/><path class="cls-3" d="M125.43,49.41c.07-.38.13-.78.2-1.19h2.22l-.31,1.67h0a3,3,0,0,1,3.51-1.79l-.5,2.26a2.89,2.89,0,0,0-.88-.14c-1.64,0-2.44,1.47-2.73,2.91l-.83,4h-2.32Z" transform="translate(-0.28 -1.07)"/><path class="cls-3" d="M135.78,49.81c-1.68,0-2.41,2.2-2.41,3.53,0,1.07.44,2,1.47,2,1.85,0,2.62-2,2.62-3.65a1.69,1.69,0,0,0-1.68-1.87m-4.91,8.66a7.22,7.22,0,0,0,2.81.69c2.45,0,2.82-1.72,3.37-3.74h0a3.36,3.36,0,0,1-3,1.7c-2.16,0-3.1-1.82-3.1-3.77,0-2.67,1.63-5.35,4.5-5.35a3.11,3.11,0,0,1,2.72,1.5l.26-1.3h2.23c-.07.24-.17.68-.3,1.25l-1.41,6.69c-.58,2.91-1.84,4.81-5.09,4.81a10.05,10.05,0,0,1-3.56-.6Z" transform="translate(-0.28 -1.07)"/><path class="cls-3" d="M144.51,55.64c1.73,0,2.27-1.19,2.63-2.63h-.81c-1.13,0-3,.19-3,1.69,0,.63.59.94,1.17.94m2.28.12h0a3.44,3.44,0,0,1-2.88,1.57,2.46,2.46,0,0,1-2.75-2.54c0-2.94,3.29-3.17,5.47-3.17h.81a2.4,2.4,0,0,0,.07-.76c0-.9-1-1.16-1.78-1.16a6.83,6.83,0,0,0-2.94.7l.33-1.85a9,9,0,0,1,3-.54c1.78,0,3.46.66,3.46,2.75,0,1.19-.88,4.69-1.09,6.37h-2Z" transform="translate(-0.28 -1.07)"/><path class="cls-3" d="M152.39,49.5c.11-.54.2-1,.23-1.28h2.26l-.15.85h.05a3.76,3.76,0,0,1,2.5-1.06,2.69,2.69,0,0,1,2.9,2.85,9.67,9.67,0,0,1-.29,1.94L159,57.13h-2.32l.87-4.21a8.8,8.8,0,0,0,.28-1.85,1.2,1.2,0,0,0-1.14-1.25h-.12c-1.61,0-2.2,1.5-2.5,2.84l-1,4.5h-2.28Z" transform="translate(-0.28 -1.07)"/></g><path class="cls-3" d="M164.07,44.38h2.32l-.5,2.21h-2.32Zm-.85,3.84h2.32l-1.9,8.91h-2.32Z" transform="translate(-0.28 -1.07)"/><g class="cls-2"><path class="cls-3" d="M172.91,50.12a5.69,5.69,0,0,0-1.9-.42c-.7,0-1.56.19-1.56.9,0,1.13,3,1.54,3,3.72s-2,3-4,3a6.38,6.38,0,0,1-2.72-.53l.5-1.85a4.49,4.49,0,0,0,2.22.69c.77,0,1.59-.26,1.59-1,0-1.44-3-1.58-3-3.81s2-2.84,3.86-2.84a10.64,10.64,0,0,1,2.5.37Z" transform="translate(-0.28 -1.07)"/></g><path class="cls-3" d="M176.56,44.38h2.32l-.5,2.21h-2.3Zm-.85,3.84H178l-1.9,8.91h-2.32Z" transform="translate(-0.28 -1.07)"/><g class="cls-2"><path class="cls-3" d="M185.26,51.8a3.08,3.08,0,0,0,.05-.61,1.31,1.31,0,0,0-1.12-1.49,1.37,1.37,0,0,0-.35,0c-1.43,0-2.06.87-2.5,2.09ZM181,53.39c0,1.64.89,2.25,2.48,2.25a6.47,6.47,0,0,0,2.73-.64l-.29,1.83a9.53,9.53,0,0,1-2.84.5c-2.56,0-4.29-1.24-4.29-3.89A5.32,5.32,0,0,1,183.88,48c2.19,0,3.65,1.12,3.65,3.39a8.89,8.89,0,0,1-.23,2Z" transform="translate(-0.28 -1.07)"/><path class="cls-3" d="M189.83,49.41c.07-.38.14-.78.21-1.19h2.21l-.31,1.67h0a3,3,0,0,1,3.51-1.79l-.5,2.26a2.89,2.89,0,0,0-.88-.14c-1.65,0-2.44,1.47-2.74,2.91l-.83,4h-2.31Z" transform="translate(-0.28 -1.07)"/><path class="cls-3" d="M195.88,48.22h1.68l.4-1.84,2.5-.81-.58,2.65H202l-.36,1.69h-2.08l-.84,3.89a3.7,3.7,0,0,0-.11.87.83.83,0,0,0,.78.87h.11a2.88,2.88,0,0,0,1.12-.2l-.4,1.8a5.73,5.73,0,0,1-1.24.2c-1.58,0-2.68-.62-2.68-2.33a9.74,9.74,0,0,1,.29-2.08l.66-3h-1.68Z" transform="translate(-0.28 -1.07)"/></g><rect class="cls-3" x="95.5" y="0.04" width="1.19" height="82.75"/><polygon class="cls-3" points="112.75 69.28 113.98 69.28 111.61 80.31 116.54 80.31 116.35 81.35 110.17 81.35 112.75 69.28"/><g class="cls-2"><path class="cls-3" d="M127.93,77.81c-.45,2.8-2.08,4.81-4.88,4.81-2.3,0-4-1.33-4-3.8a24.18,24.18,0,0,1,.69-4.14l1-4.34h1.14l-1.22,5.88a15.68,15.68,0,0,0-.37,2.55A2.58,2.58,0,0,0,123,81.58c2.06,0,3.23-1.5,3.65-3.37l1.75-7.87h1.1Z" transform="translate(-0.28 -1.07)"/></g><polygon class="cls-3" points="136.76 68.66 134.21 82.79 135.4 82.79 137.96 68.66 136.76 68.66"/><g class="cls-2"><path class="cls-3" d="M148.41,81.57c3.23,0,5.19-3.44,5.19-6.42,0-2.25-1.11-4-3.41-4-3.24,0-5.19,3.44-5.19,6.42,0,2.25,1.11,4,3.41,4m1.81-11.44c3,0,4.57,2,4.57,4.93,0,3.83-2.4,7.56-6.42,7.56-3,0-4.56-2-4.56-4.93,0-3.82,2.4-7.56,6.41-7.56" transform="translate(-0.28 -1.07)"/></g><polygon class="cls-3" points="156.66 69.28 157.81 69.28 158.66 80 158.7 80 164 69.28 165.43 69.28 166.12 80 166.16 80 171.52 69.28 172.69 69.28 166.59 81.35 165.15 81.35 164.5 70.63 164.46 70.63 159.16 81.35 157.73 81.35 156.66 69.28"/><polygon class="cls-3" points="179.04 68.66 176.48 82.79 177.68 82.79 180.23 68.66 179.04 68.66"/><polygon class="cls-3" points="187.75 69.28 189.16 69.28 193.19 79.9 193.22 79.9 195.47 69.28 196.56 69.28 194 81.35 192.59 81.35 188.56 70.73 188.52 70.73 186.24 81.35 185.13 81.35 187.75 69.28"/><polygon class="cls-3" points="197.98 69.28 199.14 69.28 199.99 80 200.03 80 205.32 69.28 206.75 69.28 207.44 80 207.48 80 212.84 69.28 214.02 69.28 207.91 81.35 206.47 81.35 205.82 70.63 205.78 70.63 200.49 81.35 199.06 81.35 197.98 69.28"/><g class="cls-2"><path class="cls-3" d="M53.15,11.07a11.94,11.94,0,0,1,16-.81L52.35,27.11a12,12,0,0,1,.8-16m22.13,9a11.9,11.9,0,0,1-3.5,9.35,12.49,12.49,0,0,1-15.67,1.46L67.55,19.43,77.7,9.25c-.28-.38-1.5-1.79-2.35-2.64a18.84,18.84,0,1,0-26.29,27c7.38,7.4,19.61,7.88,27,.5a18.85,18.85,0,0,0,4.5-19.29Z" transform="translate(-0.28 -1.07)"/></g></svg>