<svg xmlns="http://www.w3.org/2000/svg" viewBox="0 0 541.78 165.58"><defs><style>.cls-1{fill:#fff;}</style></defs><g id="Ebene_2" data-name="Ebene 2"><g id="Ebene_1-2" data-name="Ebene 1"><path class="cls-1" d="M14.09,33.93c.68-10.65,10.7-21.31,24.25-21.31v0h.17l.28,0v0A24.31,24.31,0,0,1,58.26,22H73C65.27,5.53,49.37.18,38.34.13H38.2C17.88.13.14,16.17,0,37.48c0,2.37.27,6,.4,7H62.59C59.06,58.52,47.41,64.31,37.93,64.31a24.39,24.39,0,0,1-18.49-8.14H4.28c8,15.57,23.44,20.64,34.19,20.64,21.27,0,38.21-17.76,38.21-38.41a41,41,0,0,0-.27-4.47Z"/><path class="cls-1" d="M124.21,165.58c-23.85,0-38.34-20.37-38.34-38.79a38.34,38.34,0,0,1,76.67.25c0,17.75-14.22,38.53-38.33,38.54m0-64.18c-15,0-25,12.77-25,25.79s10.14,25.9,25,25.9c14.36,0,25-12.24,25-26,0-12.89-10-25.65-25-25.64"/><path class="cls-1" d="M17.18,165V132.2H29.42c17.87,0,32.43,15.06,33.07,32.81h12A45,45,0,0,0,59.19,132.4a22.38,22.38,0,0,0-9-42.87v0H5.09V165Zm0-62.89h33v0a9.72,9.72,0,0,1,1.1,19.39H17.18Z"/><path class="cls-1" d="M237.46,9.57a11.39,11.39,0,0,0-5-1.24c-1.72,0-4,.69-4,2.76,0,3.88,8.23,3.64,8.23,10.35,0,5.91-4.64,8.06-9.93,8.06a20.33,20.33,0,0,1-6.88-1.35L221.06,24A14.26,14.26,0,0,0,227,25.69c2.32,0,4.6-1.17,4.6-3.77,0-4.36-8.24-3.67-8.24-10.1,0-5.09,4.36-7.3,9-7.3a16.91,16.91,0,0,1,6.26,1.07Z"/><path class="cls-1" d="M256.18,26.52c-.21,1.08-.39,2-.45,2.56H251.2l.31-1.73h-.07a7.62,7.62,0,0,1-5.06,2.15c-3.49,0-5.81-2.18-5.81-5.71a18.6,18.6,0,0,1,.59-3.87L243,11.27h4.64l-1.74,8.4a18.94,18.94,0,0,0-.51,3.74,2.39,2.39,0,0,0,2.52,2.49c3.22,0,4.4-3,5-5.67l1.91-9h4.63Z"/><path class="cls-1" d="M264.38,11.27H269l-3.8,17.81h-4.64Zm1.69-7.69h4.64l-1,4.43H265.1Z"/><polygon class="cls-1" points="286.49 14.86 275.59 25.48 284.51 25.48 283.86 29.08 268.94 29.08 269.67 25.48 280.64 14.86 272.44 14.86 273.24 11.26 287.25 11.26 286.49 14.86"/><path class="cls-1" d="M291.29,11.27h4.64l-3.81,17.81h-4.63ZM293,3.58h4.64l-1,4.43H292Z"/><path class="cls-1" d="M319.14,3.13l-4.8,22c-.28,1.52-.56,3-.66,3.94h-4.33l.45-2.63h-.07a6.59,6.59,0,0,1-5.81,3.05c-4.22,0-6.12-3.53-6.12-7.41,0-5.32,2.9-11.24,9-11.24a6.92,6.92,0,0,1,5.5,2.53l2.25-10.25Zm-16.5,18.55c0,1.8.56,4.22,2.84,4.22,3.39,0,5.4-3.94,5.4-7.23,0-2.08-1-4.22-3.36-4.22-3.32,0-4.88,4.56-4.88,7.23"/><path class="cls-1" d="M321.39,13.58a19.78,19.78,0,0,0,.38-2.31h4.4l-.52,2.35h.07a6.05,6.05,0,0,1,5.36-2.77c4.43,0,6.54,3,6.54,7.23,0,5.57-3.08,11.42-9.27,11.42-2.05,0-4.16-.69-4.92-3.18h-.06l-2.05,10h-4.63Zm8.13.87c-3.15,0-4.91,4.15-4.91,7.26,0,2.29.8,4.19,3.05,4.19,3.87,0,5.12-4.85,5.12-7.65,0-2.18-1.11-3.8-3.26-3.8"/><path class="cls-1" d="M342.57,13.65c.14-.76.27-1.55.41-2.38h4.43l-.62,3.35h.07a6.39,6.39,0,0,1,5.26-3.77,7.85,7.85,0,0,1,1.76.17l-1,4.54a5.64,5.64,0,0,0-1.76-.28c-3.29,0-4.88,2.94-5.47,5.81l-1.66,8h-4.63Z"/><path class="cls-1" d="M364.16,26.35h-.07c-1.59,2-3.19,3.15-5.75,3.15-3.21,0-5.5-1.8-5.5-5.09,0-5.88,6.58-6.33,10.94-6.33h1.62a5.45,5.45,0,0,0,.14-1.52c0-1.8-1.94-2.32-3.56-2.32a13.77,13.77,0,0,0-5.85,1.38l.66-3.7a18.19,18.19,0,0,1,6-1.07c3.56,0,6.92,1.32,6.92,5.5,0,2.39-1.76,9.38-2.18,12.73h-3.91Zm-4.54-.24c3.46,0,4.54-2.39,5.26-5.26h-1.62c-2.25,0-6,.38-6,3.39,0,1.24,1.18,1.87,2.35,1.87M362,8h-4l.87-4h3.94Zm7.19,0h-3.94l.86-4h4Z"/><polygon class="cls-1" points="373.63 11.27 378.37 11.27 380.17 24.34 380.24 24.34 387.27 11.27 392.18 11.27 381.76 29.08 376.64 29.08 373.63 11.27"/><path class="cls-1" d="M396.12,21.61c0,3.29,1.77,4.5,4.95,4.5a13.14,13.14,0,0,0,5.47-1.28L406,28.5a19.88,19.88,0,0,1-5.68,1c-5.12,0-8.58-2.49-8.58-7.79,0-5.53,4.3-10.86,10.14-10.86,4.39,0,7.3,2.25,7.3,6.78a19,19,0,0,1-.45,4Zm8.48-3.18a7.14,7.14,0,0,0,.1-1.21,2.66,2.66,0,0,0-2.94-3c-2.87,0-4.11,1.73-5,4.19Z"/><path class="cls-1" d="M413.84,13.82c.2-1.07.38-2,.45-2.56h4.53L418.51,13h.07a7.61,7.61,0,0,1,5.05-2.14c3.49,0,5.81,2.18,5.81,5.71a18.6,18.6,0,0,1-.59,3.87L427,29.08h-4.63l1.73-8.41a18.84,18.84,0,0,0,.52-3.73,2.39,2.39,0,0,0-2.53-2.49c-3.22,0-4.39,3-5,5.67l-1.91,9h-4.63Z"/><path class="cls-1" d="M433.52,11.27h3.36l.8-3.67,5-1.63-1.15,5.3h4.16l-.73,3.39h-4.15l-1.7,7.78a7.69,7.69,0,0,0-.2,1.73,1.64,1.64,0,0,0,1.76,1.73,6.06,6.06,0,0,0,2.25-.42l-.79,3.6a12.1,12.1,0,0,1-2.5.42c-3.15,0-5.36-1.24-5.36-4.67a19.31,19.31,0,0,1,.59-4.15l1.31-6H432.8Z"/><path class="cls-1" d="M449,11.27h4.64l-3.81,17.81h-4.63Zm1.7-7.69h4.63l-1,4.43h-4.63Z"/><path class="cls-1" d="M474.18,18.67c0,6.26-4.33,10.83-10.63,10.83-5.05,0-8.09-3.11-8.09-8.13A10.35,10.35,0,0,1,466,10.85c4.81,0,8.17,2.91,8.17,7.82m-4.85,0c0-2.31-.8-4.25-3.53-4.25-3.67,0-5.5,4.05-5.5,7.26,0,2.36,1,4.19,3.63,4.19,3.6,0,5.4-4.15,5.4-7.2"/><path class="cls-1" d="M479.19,13.82c.21-1.07.38-2,.45-2.56h4.53L483.86,13h.07A7.63,7.63,0,0,1,489,10.85c3.49,0,5.81,2.18,5.81,5.71a18.62,18.62,0,0,1-.58,3.87l-1.87,8.65H487.7l1.73-8.41a18.84,18.84,0,0,0,.52-3.73,2.39,2.39,0,0,0-2.52-2.49c-3.22,0-4.4,3-5,5.67l-1.9,9H475.9Z"/><polygon class="cls-1" points="225.63 46.45 239.85 46.45 239.12 50.26 229.68 50.26 228.43 56.21 236.87 56.21 236.11 60.01 227.64 60.01 226.22 66.8 235.77 66.8 234.94 70.6 220.54 70.6 225.63 46.45"/><path class="cls-1" d="M243.24,52.78h4.63l-3.8,17.82h-4.64Zm1.69-7.68h4.64l-1,4.43H244Z"/><path class="cls-1" d="M252.34,55.34c.2-1.07.38-2,.45-2.56h4.53L257,54.51h.07a7.56,7.56,0,0,1,5.05-2.14c3.49,0,5.81,2.17,5.81,5.7a18.81,18.81,0,0,1-.59,3.88l-1.87,8.65h-4.63l1.73-8.41a18.84,18.84,0,0,0,.52-3.74A2.39,2.39,0,0,0,260.57,56c-3.21,0-4.39,3-5,5.68l-1.9,9h-4.64Z"/><path class="cls-1" d="M275.73,44.65h4.63l-2.21,9.86h.07a7.62,7.62,0,0,1,5-2.15c3.49,0,5.81,2.19,5.81,5.72a18.16,18.16,0,0,1-.59,3.87l-1.86,8.65H282l1.73-8.41a18.84,18.84,0,0,0,.52-3.73,2.4,2.4,0,0,0-2.53-2.5c-3.21,0-4.39,3-5,5.68l-1.9,9h-4.64Z"/><path class="cls-1" d="M296.14,63.13c0,3.28,1.76,4.49,4.95,4.49a13,13,0,0,0,5.46-1.28L306,70a19.87,19.87,0,0,1-5.67,1c-5.12,0-8.58-2.49-8.58-7.78,0-5.54,4.29-10.87,10.14-10.87,4.39,0,7.29,2.26,7.29,6.79a19,19,0,0,1-.45,4Zm8.47-3.19a7,7,0,0,0,.11-1.21,2.66,2.66,0,0,0-2.94-3c-2.88,0-4.12,1.73-5,4.18Z"/><path class="cls-1" d="M314.37,52.78H319L315.2,70.6h-4.63Zm1.7-7.68h4.63l-1,4.43H315.1Z"/><path class="cls-1" d="M322,52.78h3.36l.8-3.67,5-1.62L330,52.78h4.15l-.73,3.39h-4.15L327.58,64a7.54,7.54,0,0,0-.2,1.73,1.64,1.64,0,0,0,1.76,1.73,6.27,6.27,0,0,0,2.25-.42l-.79,3.6a12.81,12.81,0,0,1-2.5.42c-3.14,0-5.36-1.25-5.36-4.67a19.49,19.49,0,0,1,.59-4.16l1.31-6h-3.35Z"/><polygon class="cls-1" points="339.14 44.65 343.78 44.65 338.28 70.6 333.64 70.6 339.14 44.65"/><path class="cls-1" d="M347.06,52.78h4.64L347.89,70.6h-4.63Zm1.7-7.68h4.63l-1,4.43h-4.63Z"/><path class="cls-1" d="M367.58,56.86a6.34,6.34,0,0,0-3.39-.9c-3.7,0-5.78,3.46-5.78,6.82,0,2.32.76,4.64,3.95,4.64a9.23,9.23,0,0,0,3.77-.9l-.52,3.66a9.86,9.86,0,0,1-4.47.83c-4.59,0-7.57-3.08-7.57-7.68,0-6.22,4.11-11,10.52-11a16.37,16.37,0,0,1,4.63.69Z"/><path class="cls-1" d="M373.78,44.65h4.63l-2.22,9.86h.08a7.62,7.62,0,0,1,5.05-2.15c3.49,0,5.81,2.19,5.81,5.72a18.81,18.81,0,0,1-.59,3.87l-1.87,8.65H380l1.73-8.41a18.84,18.84,0,0,0,.51-3.73,2.39,2.39,0,0,0-2.52-2.5c-3.22,0-4.39,3-5,5.68l-1.91,9h-4.63Z"/><path class="cls-1" d="M404.05,46.45h5.7c4.47,0,9.62-.07,9.62,5.71,0,4.15-3.11,6.36-7.06,6.43v.07a2.58,2.58,0,0,1,2.46,2.22l2.32,9.72H412l-1.17-5.68c-.56-2.56-.42-4.35-3.05-4.35H406l-2.11,10H399Zm2.76,10.31h1.77c2.6,0,5.74-.8,5.74-4,0-2.52-2.18-2.52-4.15-2.52h-2Z"/><path class="cls-1" d="M424.94,63.13c0,3.28,1.77,4.49,4.95,4.49a13.05,13.05,0,0,0,5.47-1.28L434.77,70a19.88,19.88,0,0,1-5.68,1c-5.12,0-8.58-2.49-8.58-7.78,0-5.54,4.29-10.87,10.14-10.87,4.39,0,7.3,2.26,7.3,6.79a19,19,0,0,1-.45,4Zm8.48-3.19a7,7,0,0,0,.1-1.21,2.65,2.65,0,0,0-2.94-3c-2.87,0-4.12,1.73-5,4.18Z"/><path class="cls-1" d="M440,73.3a14.39,14.39,0,0,0,5.61,1.38c4.91,0,5.64-3.42,6.74-7.47h-.07a6.66,6.66,0,0,1-6,3.39c-4.33,0-6.2-3.63-6.2-7.54,0-5.33,3.26-10.7,9-10.7a6.17,6.17,0,0,1,5.43,3l.52-2.6h4.46c-.14.48-.34,1.35-.59,2.49l-2.83,13.39c-1.15,5.81-3.67,9.62-10.18,9.62a20.12,20.12,0,0,1-7.12-1.21ZM449.75,56c-3.36,0-4.81,4.4-4.81,7.06,0,2.15.87,4,2.94,4,3.7,0,5.23-3.91,5.23-7.3,0-2.07-1.21-3.74-3.36-3.74"/><path class="cls-1" d="M464.31,52.78H469L465.14,70.6h-4.63ZM466,45.1h4.63l-1,4.43H465Z"/><path class="cls-1" d="M489.53,60.18c0,6.27-4.32,10.84-10.62,10.84-5.05,0-8.09-3.12-8.09-8.14a10.35,10.35,0,0,1,10.55-10.52c4.81,0,8.16,2.91,8.16,7.82m-4.84,0c0-2.32-.8-4.26-3.53-4.26-3.67,0-5.5,4-5.5,7.27,0,2.35,1,4.18,3.63,4.18,3.6,0,5.4-4.14,5.4-7.19"/><path class="cls-1" d="M494.55,55.34c.21-1.07.38-2,.45-2.56h4.53l-.31,1.73h.07a7.59,7.59,0,0,1,5.06-2.14c3.49,0,5.8,2.17,5.8,5.7a18.83,18.83,0,0,1-.58,3.88L507.7,70.6h-4.64l1.73-8.41a18.84,18.84,0,0,0,.52-3.74A2.39,2.39,0,0,0,502.79,56c-3.22,0-4.4,3-5,5.68l-1.91,9h-4.63Z"/><path class="cls-1" d="M523.72,67.87h-.07c-1.59,2-3.19,3.14-5.75,3.14-3.21,0-5.5-1.79-5.5-5.08,0-5.88,6.58-6.33,10.94-6.33H525a5.56,5.56,0,0,0,.14-1.53c0-1.79-1.94-2.31-3.56-2.31a13.77,13.77,0,0,0-5.85,1.38l.66-3.7a18.19,18.19,0,0,1,6-1.07c3.57,0,6.92,1.31,6.92,5.5,0,2.38-1.76,9.37-2.18,12.73h-3.91Zm-4.54-.25c3.46,0,4.54-2.38,5.26-5.26h-1.62c-2.25,0-6,.39-6,3.4,0,1.24,1.18,1.86,2.35,1.86"/><polygon class="cls-1" points="537.14 44.65 541.78 44.65 536.27 70.6 531.64 70.6 537.14 44.65"/><path class="cls-1" d="M245.66,97.79a16.11,16.11,0,0,1-4,10.7c-2.52,2.79-6.19,4-10.24,4-6,0-9.51-4.29-9.51-10a16.14,16.14,0,0,1,3.8-10.45,12.71,12.71,0,0,1,9.94-4.5c6.53,0,10.06,3.81,10.06,10.24m-18.75,5c0,3.14,1.59,5.94,5.08,5.94,5.54,0,8.62-6.64,8.62-11.44,0-3.22-1.66-5.92-5.16-5.92-5.64,0-8.54,6.54-8.54,11.42"/><path class="cls-1" d="M250.3,96.69c.14-.76.27-1.56.41-2.39h4.43l-.62,3.35h.07a6.41,6.41,0,0,1,5.26-3.77,7.3,7.3,0,0,1,1.76.18l-1,4.53a5.69,5.69,0,0,0-1.76-.28c-3.29,0-4.88,2.94-5.47,5.82l-1.66,8h-4.63Z"/><path class="cls-1" d="M261.19,114.82a14.43,14.43,0,0,0,5.61,1.38c4.91,0,5.64-3.43,6.75-7.47h-.07a6.69,6.69,0,0,1-6,3.39c-4.32,0-6.19-3.64-6.19-7.54,0-5.33,3.25-10.7,9-10.7a6.17,6.17,0,0,1,5.43,3l.52-2.59h4.46c-.14.48-.34,1.35-.59,2.49l-2.83,13.39c-1.15,5.81-3.67,9.62-10.18,9.62a20.12,20.12,0,0,1-7.12-1.21ZM271,97.48c-3.36,0-4.81,4.4-4.81,7.06,0,2.15.87,4,2.94,4,3.7,0,5.23-3.91,5.23-7.3,0-2.08-1.21-3.74-3.36-3.74"/><path class="cls-1" d="M293,109.38H293c-1.59,2-3.19,3.15-5.75,3.15-3.21,0-5.5-1.79-5.5-5.08,0-5.89,6.58-6.34,10.94-6.34h1.62a5.45,5.45,0,0,0,.14-1.52c0-1.8-1.94-2.32-3.56-2.32A13.6,13.6,0,0,0,285,98.66l.66-3.7a18,18,0,0,1,6-1.08c3.56,0,6.92,1.32,6.92,5.51,0,2.38-1.76,9.37-2.18,12.73h-3.91Zm-4.54-.24c3.46,0,4.54-2.38,5.26-5.26h-1.62c-2.25,0-6,.38-6,3.39,0,1.25,1.18,1.87,2.35,1.87"/><path class="cls-1" d="M304.23,96.86c.21-1.07.39-2,.45-2.56h4.53L308.9,96H309A7.62,7.62,0,0,1,314,93.88c3.49,0,5.81,2.18,5.81,5.71a18.81,18.81,0,0,1-.59,3.88l-1.87,8.65h-4.64l1.74-8.41A18.84,18.84,0,0,0,315,100a2.39,2.39,0,0,0-2.52-2.49c-3.22,0-4.4,3-5,5.68l-1.91,9H301Z"/><path class="cls-1" d="M325.89,94.3h4.64l-3.81,17.82h-4.63Zm1.7-7.68h4.63l-1,4.43h-4.63Z"/><path class="cls-1" d="M345.26,98.1a11,11,0,0,0-3.8-.83c-1.39,0-3.11.38-3.11,1.8,0,2.25,6,3.08,6,7.44,0,4.64-4,6-8,6a12.83,12.83,0,0,1-5.44-1.07l1-3.7a8.76,8.76,0,0,0,4.43,1.38c1.55,0,3.18-.52,3.18-2,0-2.87-6-3.15-6-7.61,0-4.19,4.05-5.68,7.72-5.68a20.53,20.53,0,0,1,5,.73Z"/><path class="cls-1" d="M350.87,94.3h4.64l-3.81,17.82h-4.63Zm1.7-7.68h4.63l-1,4.43H351.6Z"/><path class="cls-1" d="M361.49,104.64c0,3.29,1.77,4.5,4.95,4.5a13,13,0,0,0,5.46-1.28l-.58,3.67a19.88,19.88,0,0,1-5.68,1c-5.12,0-8.58-2.49-8.58-7.78,0-5.54,4.29-10.87,10.14-10.87,4.39,0,7.3,2.25,7.3,6.79a18.87,18.87,0,0,1-.45,4Zm8.48-3.18a8.12,8.12,0,0,0,.1-1.21,2.65,2.65,0,0,0-2.94-3c-2.87,0-4.12,1.73-5,4.18Z"/><path class="cls-1" d="M379.1,96.69c.14-.76.28-1.56.42-2.39h4.42l-.62,3.35h.07a6.41,6.41,0,0,1,5.26-3.77,7.3,7.3,0,0,1,1.76.18l-1,4.53a5.71,5.71,0,0,0-1.77-.28c-3.29,0-4.87,2.94-5.47,5.82l-1.66,8h-4.63Z"/><path class="cls-1" d="M391.21,94.3h3.35l.8-3.67,5-1.62L399.2,94.3h4.15l-.72,3.39h-4.16l-1.69,7.78a7.63,7.63,0,0,0-.21,1.74,1.64,1.64,0,0,0,1.77,1.72,6.18,6.18,0,0,0,2.24-.41l-.79,3.6a12.81,12.81,0,0,1-2.49.41c-3.15,0-5.36-1.24-5.36-4.67a19.47,19.47,0,0,1,.58-4.15l1.32-6h-3.36Z"/><rect class="cls-1" x="190.99" y="0.08" width="2.38" height="165.51"/><polygon class="cls-1" points="225.51 138.55 227.96 138.55 223.22 160.62 233.08 160.62 232.7 162.69 220.35 162.69 225.51 138.55"/><path class="cls-1" d="M255.3,153.49c-.9,5.6-4.16,9.62-9.76,9.62-4.6,0-8-2.67-8-7.61a46.86,46.86,0,0,1,1.39-8.27l1.9-8.68h2.28l-2.45,11.76a31.21,31.21,0,0,0-.73,5.09c0,3.52,2.11,5.63,5.53,5.63,4.12,0,6.47-3,7.3-6.74l3.5-15.74h2.21Z"/><polygon class="cls-1" points="273.53 137.31 275.91 137.31 270.79 165.57 268.41 165.57 273.53 137.31"/><path class="cls-1" d="M299.89,138.13c5.95,0,9.13,4,9.13,9.86,0,7.65-4.8,15.12-12.83,15.12-5.95,0-9.13-4-9.13-9.86,0-7.65,4.8-15.12,12.83-15.12M296.26,161c6.47,0,10.38-6.88,10.38-12.83,0-4.5-2.22-8-6.82-8-6.47,0-10.38,6.88-10.38,12.83,0,4.5,2.22,8,6.82,8"/><polygon class="cls-1" points="313.31 138.55 315.63 138.55 317.33 160 317.4 160 327.99 138.55 330.86 138.55 332.24 160 332.31 160 343.04 138.55 345.39 138.55 333.17 162.69 330.3 162.69 328.99 141.25 328.92 141.25 318.33 162.69 315.46 162.69 313.31 138.55"/><polygon class="cls-1" points="358.08 137.31 360.47 137.31 355.35 165.57 352.96 165.57 358.08 137.31"/><polygon class="cls-1" points="375.49 138.55 378.32 138.55 386.38 159.79 386.45 159.79 390.95 138.55 393.13 138.55 388.01 162.69 385.17 162.69 377.11 141.45 377.04 141.45 372.48 162.69 370.26 162.69 375.49 138.55"/><polygon class="cls-1" points="395.96 138.55 398.28 138.55 399.98 160 400.05 160 410.64 138.55 413.51 138.55 414.89 160 414.96 160 425.69 138.55 428.04 138.55 415.83 162.69 412.95 162.69 411.64 141.25 411.57 141.25 400.98 162.69 398.11 162.69 395.96 138.55"/><path class="cls-1" d="M150,38a23.75,23.75,0,0,1-7,18.71c-6.59,6.6-18.82,10.55-31.33,2.92l22.87-22.91h0l20.31-20.36c-.57-.75-3-3.58-4.7-5.27a37.73,37.73,0,0,0-53.25-.19c-14.67,14.7-15,38.55.66,54.19,14.77,14.8,39.23,15.75,54,1a37.69,37.69,0,0,0,9-38.58ZM105.74,20c9.4-9.43,24-8.77,32.08-1.61L104.14,52.09C97,44,96.33,29.37,105.74,20"/></g></g></svg>