<svg id="Ebene_1" data-name="Ebene 1" xmlns="http://www.w3.org/2000/svg" xmlns:xlink="http://www.w3.org/1999/xlink" viewBox="0 0 75 76.75">
  <defs>
    <style>.cls-1,.cls-10,.cls-7,.cls-8{fill:none;}.cls-2{clip-path:url(#clip-path);}.cls-3{fill:#eceae8;}.cls-4{clip-path:url(#clip-path-2);}.cls-5{fill:#fbd3ba;}.cls-6{clip-path:url(#clip-path-3);}.cls-10,.cls-7,.cls-8{stroke:#cb5f16;}.cls-10,.cls-7{stroke-linecap:round;stroke-linejoin:round;}.cls-7{stroke-width:1.75px;}.cls-10,.cls-8{stroke-width:2.5px;}.cls-9{fill:#f29153;}</style>
    <clipPath id="clip-path">
      <rect class="cls-1" width="75" height="75" />
    </clipPath>
    <clipPath id="clip-path-2">
      <circle class="cls-1" cx="37.5" cy="37.5" r="37.5" />
    </clipPath>
    <clipPath id="clip-path-3">
      <path class="cls-1" d="M27,22.7A10.55,10.55,0,1,0,37.55,12.15h0A10.55,10.55,0,0,0,27,22.7" />
    </clipPath>
  </defs>
  <g class="cls-2">
    <path class="cls-3" d="M37.5,73.75A36.25,36.25,0,1,0,1.25,37.5,36.25,36.25,0,0,0,37.5,73.75" />
  </g>
  <g class="cls-4">
    <path class="cls-5" d="M37.5,33.24A10.55,10.55,0,1,0,27,22.64v.06A10.56,10.56,0,0,0,37.5,33.24" />
  </g>
  <g class="cls-6">
    <path class="cls-7" d="M34.55,24.81s2.37,2.57,4.66,2.17,3.65-3.64,3.65-3.64" />
  </g>
  <g class="cls-4">
    <circle class="cls-8" cx="37.5" cy="22.7" r="10.55" />
    <path class="cls-9" d="M66.5,76.25s-4.31-9.84-7.91-18-7.31-18.8-17-20.7c-1.33-.26-2.69,8-4.09,8s-2.76-8.3-4.09-8C23.72,39.41,20.5,42.86,17.5,50c-2,4.81-9,24.86-9,24.86" />
    <path class="cls-8" d="M66.5,76.25s-4.31-9.84-7.91-18-7.31-18.8-17-20.7c-1.33-.26-2.69,8-4.09,8s-2.76-8.3-4.09-8C23.72,39.41,20.5,42.86,17.5,50c-2,4.81-9,24.86-9,24.86" />
  </g>
  <g class="cls-2">
    <circle class="cls-10" cx="37.5" cy="37.5" r="36.25" />
  </g>
</svg>