<svg id="Ebene_1" data-name="Ebene 1" xmlns="http://www.w3.org/2000/svg" xmlns:xlink="http://www.w3.org/1999/xlink" viewBox="0 0 277.5 147.5"><defs><style>.cls-1,.cls-4{fill:none;}.cls-2{clip-path:url(#clip-path);}.cls-3{fill:#eceae8;}.cls-4{stroke:#cb5f16;stroke-linecap:round;stroke-linejoin:round;stroke-width:2.5px;}</style><clipPath id="clip-path" transform="translate(0.33 -0.01)"><rect class="cls-1" x="-0.33" y="0.01" width="277.5" height="147.5"/></clipPath></defs><g class="cls-2"><path class="cls-3" d="M275.92,76.26v-50c0-12.79-11.19-25-25-25h-225c-13.81,0-25,12.21-25,25v50c0,12.78,11.19,25,25,25h107.5l42.5,45v-45h75c13.81,0,25-12.22,25-25" transform="translate(0.33 -0.01)"/><path class="cls-4" d="M275.92,76.26v-50c0-12.79-11.19-25-25-25h-225c-13.81,0-25,12.21-25,25v50c0,12.78,11.19,25,25,25h107.5l42.5,45v-45h75C264.73,101.26,275.92,89,275.92,76.26Z" transform="translate(0.33 -0.01)"/></g></svg>